<svg width="50" height="50" viewBox="0 0 50 50" fill="none" xmlns="http://www.w3.org/2000/svg">
<rect width="50" height="50" rx="3" fill="#2589BD"/>
<circle cx="24.9998" cy="26.6667" r="8.33333" fill="#B0413E"/>
<path d="M25.0002 34.1667C27.0835 34.1667 28.8543 33.4375 30.3127 31.9792C31.771 30.5208 32.5002 28.75 32.5002 26.6667C32.5002 24.5833 31.771 22.8125 30.3127 21.3542C28.8543 19.8958 27.0835 19.1667 25.0002 19.1667C22.9168 19.1667 21.146 19.8958 19.6877 21.3542C18.2293 22.8125 17.5002 24.5833 17.5002 26.6667C17.5002 28.75 18.2293 30.5208 19.6877 31.9792C21.146 33.4375 22.9168 34.1667 25.0002 34.1667ZM11.6668 40C10.7502 40 10.0002 40 9.16683 39.1667C8.3335 38.3333 8.3335 37.5833 8.3335 36.6667V16.6667C8.3335 15.75 8.3335 15 9.16683 14.1667C10.0002 13.3333 10.7502 13.3333 11.6668 13.3333H16.9168L20.0002 10H30.0002L33.0835 13.3333H38.3335C39.2502 13.3333 40.0002 13.3333 40.8335 14.1667C41.6668 15 41.6668 15.75 41.6668 16.6667V36.6667C41.6668 37.5833 41.6668 38.3333 40.8335 39.1667C40.0002 40 39.2502 40 38.3335 40H11.6668Z" fill="#292F36"/>
</svg>
